<svg width="216" height="60" viewBox="0 0 216 60" fill="none" xmlns="http://www.w3.org/2000/svg">
<g clip-path="url(#clip0_886_322)">
<path d="M69.2173 -3.8147e-06H12.4652C5.58377 -3.8147e-06 0 4.19691 0 9.38077V50.618C0 55.7542 5.47333 59.9249 12.2784 59.9988L69.1767 60C76.0582 60 81.6549 55.8019 81.6549 50.618L81.6825 9.38077C81.6825 4.19691 76.0971 -3.8147e-06 69.2173 -3.8147e-06ZM19.2102 55.1928L16.113 55.2202C12.3629 55.2202 9.33552 52.9543 9.33552 50.1699L9.31278 49.7682V11.6872L9.33552 9.63466C9.48656 6.94081 12.272 4.76429 15.9263 4.76429H22.2165C27.9286 4.76429 32.5476 8.40574 32.5476 12.6944C32.5476 14.8245 31.4107 16.7471 29.5722 18.1525L13.5209 30.1007L28.5718 41.3529C30.5045 42.8238 31.6738 44.7536 31.6738 46.8621C31.6738 51.4619 26.1047 55.1928 19.2102 55.1928ZM65.4818 55.1582L37.4184 55.1523C37.4184 55.1523 40.6634 50.0006 40.6634 46.8169C40.6634 42.9346 38.8947 39.46 36.1256 37.1667L26.5318 29.9839L36.3156 22.5627C39.2439 20.5435 41.1767 16.9712 41.1767 12.9078C41.1767 9.6883 39.965 6.83593 38.0031 4.76429H44.8066C50.5138 4.76429 55.1377 8.40574 55.1377 12.6944C55.1377 14.8245 54.0057 16.7471 52.172 18.1525L36.4179 29.9791L69.128 54.4609C68.0853 54.9401 66.7827 55.1582 65.4818 55.1582ZM72.3275 47.5118L48.8832 29.9756L60.0475 21.6509C62.3229 19.559 63.7716 16.4181 63.7716 12.9078C63.7716 9.66922 62.5373 6.74176 60.5672 4.67131L65.5581 4.78574C69.3018 4.78574 72.347 7.04452 72.347 9.8373L72.3275 47.5118Z" fill="#00529C"/>
<path d="M131.986 27.183C132.443 26.8481 132.982 26.4166 133.604 25.8885C134.224 25.3605 134.812 24.7371 135.368 24.0171C135.923 23.2972 136.397 22.495 136.789 21.607C137.182 20.7202 137.378 19.7725 137.378 18.7653C137.378 16.7998 136.92 14.9653 136.006 13.262C135.09 11.5599 133.685 10.0723 131.79 8.8005C129.894 7.53106 127.526 6.53457 124.682 5.81462C121.84 5.09587 118.522 4.73589 114.733 4.73589H114.629H103.734H100.899H89.7344V13.9069V45.6561V55.0977H117.184C121.169 55.0977 124.648 54.7019 127.624 53.9105C130.596 53.119 133.065 52.0283 135.025 50.6373C136.985 49.2463 138.439 47.6276 139.387 45.7812C140.334 43.9349 140.808 41.9562 140.808 39.8453C140.808 37.0155 139.927 34.4981 138.163 32.2906C136.397 30.0854 134.338 28.3821 131.986 27.183ZM119.849 13.9641C120.773 14.2227 121.545 14.5589 122.147 14.982C123.708 16.081 124.489 17.3946 124.489 18.9227C124.489 20.3089 124.163 21.4544 123.513 22.3615C122.862 23.2698 122.211 23.9623 121.561 24.4391H102.479V13.3693H114.34C116.563 13.3693 118.394 13.5707 119.849 13.9641ZM117.869 33.1548C121.324 33.1548 123.883 33.8115 125.55 35.1227C127.117 36.4136 127.906 37.9369 127.906 39.6998C127.906 41.5164 127.011 43.0671 125.222 44.3568C123.43 45.6466 120.487 46.2926 116.386 46.2926H114.855H102.479V33.1548H117.869Z" fill="#00529C"/>
<path d="M187.346 33.4063C189.404 32.3752 191.12 31.1761 192.493 29.8089C193.865 28.4417 194.877 26.9315 195.532 25.277C196.185 23.6214 196.513 21.9312 196.513 20.204C196.513 17.95 196.004 15.876 194.992 13.9808C193.977 12.0867 192.459 10.4561 190.433 9.08895C188.407 7.72177 185.875 6.65496 182.836 5.88733C179.797 5.1209 176.284 4.73589 172.298 4.73589H171.939H145.536H145.289V55.0977H158.281V36.3921H165.524L183.44 55.0977H198.668L180.141 35.7449C182.885 35.218 185.287 34.4385 187.346 33.4063ZM172.396 13.3693C173.213 13.3693 173.984 13.4086 174.718 13.4766C177.034 13.7329 178.926 14.3396 180.385 15.3039C182.37 16.6186 183.362 18.2301 183.362 20.1397C183.362 21.0968 183.149 22.0277 182.727 22.9348C182.303 23.8431 181.637 24.6429 180.726 25.3343C179.813 26.028 178.642 26.5882 177.211 27.0185C175.779 27.4488 174.054 27.6634 172.037 27.6634H158.281V13.3693H172.396Z" fill="#00529C"/>
<path d="M203.256 4.73589V4.7502C203.124 4.74781 202.996 4.73589 202.864 4.73589H202.754V4.73947V23.1994V36.4267V55.0977H216V4.73589H203.256Z" fill="#00529C"/>
</g>
<defs>
<clipPath id="clip0_886_322">
<rect width="216" height="60" fill="white"/>
</clipPath>
</defs>
</svg>
